<svg id="Logo_red" data-name="Logo/red" xmlns="http://www.w3.org/2000/svg" xmlns:xlink="http://www.w3.org/1999/xlink" width="134" height="30" viewBox="0 0 134 30">
  <defs>
    <clipPath id="clip-path">
      <path id="Clip_2" data-name="Clip 2" d="M0,0H23.776V24.059H0Z" transform="translate(0 0.039)" fill="none"/>
    </clipPath>
    <clipPath id="clip-path-2">
      <path id="Clip_11" data-name="Clip 11" d="M0,0H16.479V29.267H0Z" transform="translate(0.05 0.023)" fill="none"/>
    </clipPath>
    <clipPath id="clip-path-3">
      <path id="Clip_14" data-name="Clip 14" d="M0,0H24.729V24.8H0Z" transform="translate(0.085 0.001)" fill="none"/>
    </clipPath>
  </defs>
  <g id="Group_3" data-name="Group 3" transform="translate(1 4.72)">
    <path id="Clip_2-2" data-name="Clip 2" d="M0,0H23.776V24.059H0Z" transform="translate(0 0.039)" fill="none"/>
    <g id="Group_3-2" data-name="Group 3" clip-path="url(#clip-path)">
      <path id="Fill_1" data-name="Fill 1" d="M20.992,3.255a11.725,11.725,0,0,1,2.783,7.784v13.02H18.115V11.841c0-3.727-2.453-6.369-5.9-6.369a6.16,6.16,0,0,0-4.67,2.076,7.174,7.174,0,0,0-1.887,5.095V24.059H0V.472H5.661V3.963A10.144,10.144,0,0,1,13.916,0a8.859,8.859,0,0,1,7.076,3.255" transform="translate(0 0.039)" fill="#590000"/>
    </g>
  </g>
  <path id="Fill_4" data-name="Fill 4" d="M15.426,7.772a5.69,5.69,0,0,0-5.755-2.5c-2.123.33-4.01,2.547-4.01,5.991v12.6H0V.271H5.661V3.621A7.307,7.307,0,0,1,10.237.177a5.8,5.8,0,0,1,5.095,1.085Z" transform="translate(118.12 4.959)" fill="#590000"/>
  <path id="Fill_6" data-name="Fill 6" d="M14.2,24.53a16.551,16.551,0,0,1-5.49-.884A14.57,14.57,0,0,1,4.1,20.993a12.349,12.349,0,0,1-3.078-3.974A11.053,11.053,0,0,1,0,12.265,10.918,10.918,0,0,1,1.026,7.554,12.386,12.386,0,0,1,4.1,3.586,14.362,14.362,0,0,1,8.71.89,16.4,16.4,0,0,1,14.2,0a11,11,0,0,1,7.454,2.406,7.535,7.535,0,0,1,2.83,5.944,6.529,6.529,0,0,1-3.114,5.613,14.191,14.191,0,0,1-8.113,2.123,15.641,15.641,0,0,1-7.5-1.934c.941,3.219,4.115,5.142,8.492,5.142a11.37,11.37,0,0,0,8.019-2.736v6.086A15.8,15.8,0,0,1,14.2,24.53ZM13.964,5.236A10.017,10.017,0,0,0,9.34,6.321,7.213,7.213,0,0,0,6.274,9.247a12.248,12.248,0,0,0,6.982,1.934c3.5,0,5.755-1.037,5.755-2.642A2.8,2.8,0,0,0,17.69,6.109,6.88,6.88,0,0,0,13.964,5.236Z" transform="translate(26.586 4.759)" fill="#590000"/>
  <path id="Fill_8" data-name="Fill 8" d="M.236,21.276V15.049a14.473,14.473,0,0,0,4.623,2.972,13.52,13.52,0,0,0,5.189,1.227q4.671,0,4.67-1.981,0-1.132-4.246-2.547l-2.217-.708C2.642,12.265,0,10.378,0,6.416,0,2.689,3.727,0,10.284,0c3.915,0,7.029.991,9.34,2.925V8.916A13.446,13.446,0,0,0,10.8,5.331c-3.349,0-5.048.519-5.048,1.557,0,.425.661.849,1.793,1.368l1.793.66c1.179.377,3.208,1.038,4.34,1.462,4.387,1.7,6.84,3.727,6.84,7.123,0,4.151-3.821,7.029-10.614,7.029A14.976,14.976,0,0,1,.236,21.276" transform="translate(52.674 4.759)" fill="#590000"/>
  <g id="Group_12" data-name="Group 12" transform="translate(73.881)">
    <path id="Clip_11-2" data-name="Clip 11" d="M0,0H16.479V29.267H0Z" transform="translate(0.05 0.023)" fill="none"/>
    <g id="Group_12-2" data-name="Group 12" clip-path="url(#clip-path-2)">
      <path id="Fill_10" data-name="Fill 10" d="M15.21,23.795c-3.349,0-5-1.6-5-4.765V10.869h6.269V5.208H10.21V0H4.549V5.208H0v5.661H4.549v8.4c0,6.18,3.916,10,10.284,10a13.7,13.7,0,0,0,1.646-.1V23.705a8.9,8.9,0,0,1-1.268.089" transform="translate(0.05 0.023)" fill="#590000"/>
    </g>
  </g>
  <g id="Group_15" data-name="Group 15" transform="translate(91.881 4.72)">
    <path id="Clip_14-2" data-name="Clip 14" d="M0,0H24.729V24.8H0Z" transform="translate(0.085 0.001)" fill="none"/>
    <g id="Group_15-2" data-name="Group 15" clip-path="url(#clip-path-3)">
      <path id="Fill_13" data-name="Fill 13" d="M19.445,24.8h0a21.635,21.635,0,0,0-1.368-4.2,13.422,13.422,0,0,1-4.211,3.013,11.923,11.923,0,0,1-4.847,1c-3.713,0-7.012-1.877-8.209-4.67a7.575,7.575,0,0,1-.176-6.424,7.281,7.281,0,0,1,2.044-2.657A9.393,9.393,0,0,1,6.236,9.1a13.154,13.154,0,0,1,3.487-.487,13.085,13.085,0,0,1,6.09,1.572,6.4,6.4,0,0,0-2.076-2.925A9.138,9.138,0,0,0,8.01,5.368,9.425,9.425,0,0,0,3.406,6.5L1.613,1.312A15.85,15.85,0,0,1,7.963,0C8.526,0,9.1.029,9.679.086a13.906,13.906,0,0,1,7.643,3.208A11.731,11.731,0,0,1,21.255,8.83a10.923,10.923,0,0,1,.077,6.21,21.346,21.346,0,0,1,3.4,8.255L19.446,24.8ZM9.732,13.666h0a7.379,7.379,0,0,0-1.184.1,3.536,3.536,0,0,0-2.784,1.793,2.2,2.2,0,0,0,.518,2.595,4.288,4.288,0,0,0,3.3,1.179,6.686,6.686,0,0,0,5.378-3.4,7.52,7.52,0,0,0-5.231-2.268Z" transform="translate(0.085 0.001)" fill="#590000"/>
    </g>
  </g>
</svg>
